# xmcd
#
# Track frame offsets:
#	150
#	14128
#	26644
#	37522
#	52840
#	66265
#
# Disc length: 1058 seconds
# Revision: 0
# Processed by: cddbd v1.5.2PL0 Copyright (c) Steve Scherf et al.
# Submitted via: dBpowerAMP V12.0
#
DISCID=43042006
DTITLE=Big Smo - Bringin’ It Home
DYEAR=2015
DGENRE=Country Rap
TTITLE0=Bringin’ It Home
TTITLE1=Rebel Road
TTITLE2=Rednecks Got It Right
TTITLE3=Meet Me in the Mud
TTITLE4=Kuntry Folk
TTITLE5=You Can’t Hide
EXTD=
EXTT0=
EXTT1=
EXTT2=
EXTT3=
EXTT4=
EXTT5=
PLAYORDER=
